M48
; DRILL file {KiCad (6.0.5)} date Tue Mar 26 17:33:16 2024
; FORMAT={-:-/ absolute / inch / decimal}
; #@! TF.CreationDate,2024-03-26T17:33:16-05:00
; #@! TF.GenerationSoftware,Kicad,Pcbnew,(6.0.5)
; #@! TF.FileFunction,Plated,1,2,PTH
FMAT,2
INCH
; #@! TA.AperFunction,Plated,PTH,ViaDrill
T1C0.0157
; #@! TA.AperFunction,Plated,PTH,ComponentDrill
T2C0.0394
; #@! TA.AperFunction,Plated,PTH,ComponentDrill
T3C0.0433
%
G90
G05
T1
X4.7Y-4.0
X4.7Y-4.2
X5.1Y-3.9
X5.3Y-3.7
X6.0Y-3.5
X6.2Y-3.4
T2
X4.6Y-3.5
X4.6Y-4.5
X4.6Y-4.6
X4.7Y-3.5
X4.75Y-4.7
X4.8Y-3.5
X4.85Y-4.7
X4.9Y-3.5
X4.95Y-4.7
X5.05Y-4.7
X5.15Y-4.7
X5.2Y-3.5
X5.2Y-3.6
X5.25Y-4.7
X5.3Y-3.5
X5.3Y-3.6
X5.4Y-3.5
X5.4Y-3.6
X5.5Y-3.5
X5.5Y-3.6
X5.5Y-4.5
X5.5Y-4.6
X5.6Y-3.5
X5.6Y-3.6
X5.6Y-4.5
X5.6Y-4.6
X5.7Y-4.5
X5.7Y-4.6
X5.8Y-4.5
X5.8Y-4.6
X5.9Y-3.8
X5.9Y-3.9
X5.9Y-4.0
T3
X4.3441Y-3.8114
X4.3441Y-3.9886
X4.6Y-3.8114
X4.6Y-3.9886
T0
M30
